<svg width="25" height="22" viewBox="0 0 25 22" fill="none" xmlns="http://www.w3.org/2000/svg">
<ellipse cx="12.499" cy="10.9989" rx="1.12005" ry="1.1" fill="white"/>
<path d="M17.6009 11C17.6009 13.9755 16.9858 16.6446 16.015 18.5513C15.0303 20.4855 13.7604 21.5 12.5006 21.5C11.2408 21.5 9.97094 20.4855 8.98624 18.5513C8.01548 16.6446 7.40039 13.9755 7.40039 11C7.40039 8.02449 8.01548 5.35544 8.98624 3.44867C9.97094 1.51451 11.2408 0.5 12.5006 0.5C13.7604 0.5 15.0303 1.51451 16.015 3.44867C16.9858 5.35544 17.6009 8.02449 17.6009 11Z" stroke="white"/>
<path d="M15.0473 15.3311C12.4211 16.8202 9.7572 17.6325 7.58781 17.7604C5.38344 17.8903 3.86002 17.3144 3.23568 16.2524C2.61134 15.1903 2.86517 13.6066 4.08195 11.7967C5.27941 10.0156 7.32769 8.15598 9.9539 6.66687C12.5801 5.17777 15.244 4.36545 17.4134 4.23756C19.6178 4.10762 21.1412 4.68356 21.7656 5.7456C22.3899 6.80764 22.1361 8.39131 20.9193 10.2012C19.7218 11.9824 17.6736 13.842 15.0473 15.3311Z" stroke="white"/>
<path d="M15.0473 6.66892C12.4211 5.17981 9.7572 4.36749 7.58781 4.23961C5.38344 4.10966 3.86002 4.68561 3.23568 5.74765C2.61134 6.80968 2.86517 8.39336 4.08195 10.2033C5.27941 11.9844 7.32769 13.844 9.9539 15.3331C12.5801 16.8222 15.244 17.6346 17.4134 17.7624C19.6178 17.8924 21.1412 17.3164 21.7656 16.2544C22.3899 15.1924 22.1361 13.6087 20.9193 11.7988C19.7218 10.0176 17.6736 8.15802 15.0473 6.66892Z" stroke="white"/>
</svg>
