<svg width="30" height="26" viewBox="0 0 30 26" fill="none" xmlns="http://www.w3.org/2000/svg">
<path d="M11.3158 25C12.9436 25 14.2632 23.8061 14.2632 22.3333C14.2632 20.8606 12.9436 19.6667 11.3158 19.6667C9.68801 19.6667 8.36842 20.8606 8.36842 22.3333C8.36842 23.8061 9.68801 25 11.3158 25Z" fill="white"/>
<path d="M23.1053 25C24.7331 25 26.0526 23.8061 26.0526 22.3333C26.0526 20.8606 24.7331 19.6667 23.1053 19.6667C21.4775 19.6667 20.1579 20.8606 20.1579 22.3333C20.1579 23.8061 21.4775 25 23.1053 25Z" fill="white"/>
<path d="M1 1H4.68421L7.63158 19.6667H23.1053M23.1053 19.6667C21.4775 19.6667 20.1579 20.8606 20.1579 22.3333C20.1579 23.8061 21.4775 25 23.1053 25C24.7331 25 26.0526 23.8061 26.0526 22.3333C26.0526 20.8606 24.7331 19.6667 23.1053 19.6667ZM6.99999 15.6667H24.5789L29 3.66667H5.10525M14.2632 22.3333C14.2632 23.8061 12.9436 25 11.3158 25C9.68801 25 8.36842 23.8061 8.36842 22.3333C8.36842 20.8606 9.68801 19.6667 11.3158 19.6667C12.9436 19.6667 14.2632 20.8606 14.2632 22.3333Z" stroke="white" stroke-width="1.8" stroke-linecap="round" stroke-linejoin="round"/>
<path d="M7.46109 15.4479L5.8457 4.06653H28.9995L24.6919 15.4479H7.46109Z" fill="white"/>
</svg>
