<svg width="17" height="17" viewBox="0 0 17 17" fill="none" xmlns="http://www.w3.org/2000/svg">
<g style="mix-blend-mode:darken">
<path d="M1 1V6M1 6H6M1 6C2.93953 4.2595 4.73573 2.28897 7.45443 1.90649C9.06474 1.67995 10.7051 1.98284 12.1282 2.76953C13.5514 3.55622 14.6803 4.78409 15.3449 6.26814M16 16V11M16 11H11M16 11C14.0605 12.7405 12.2643 14.711 9.54555 15.0935C7.93524 15.3201 6.29493 15.0172 4.87175 14.2305C3.44857 13.4438 2.31964 12.2159 1.65503 10.7319" stroke="white" stroke-linecap="round" stroke-linejoin="round"/>
</g>
<path d="M4.90909 12H4V11.5C4 10.5681 4.57944 9.78502 5.36364 9.563M6.27273 7.91465C5.74309 7.70873 5.36364 7.15311 5.36364 6.5C5.36364 5.8469 5.74309 5.29128 6.27273 5.08536M13.0909 12H14V11.5C14 10.5681 13.4206 9.78502 12.6364 9.563M11.7273 5.08536C12.2569 5.29128 12.6364 5.8469 12.6364 6.5C12.6364 7.15311 12.2569 7.70873 11.7273 7.91465M8.09091 9.5H9.90909C10.9132 9.5 11.7273 10.3954 11.7273 11.5V12H6.27273V11.5C6.27273 10.3954 7.08675 9.5 8.09091 9.5ZM10.3636 6.5C10.3636 7.32843 9.75312 8 9 8C8.24688 8 7.63636 7.32843 7.63636 6.5C7.63636 5.67157 8.24688 5 9 5C9.75312 5 10.3636 5.67157 10.3636 6.5Z" stroke="white" stroke-width="0.6" stroke-linecap="round" stroke-linejoin="round"/>
</svg>
