<svg width="27" height="26" viewBox="0 0 27 26" fill="none" xmlns="http://www.w3.org/2000/svg">
<path d="M8 11.2L13.5 16M13.5 16L19 11.2M13.5 16L13.5 1.99404e-09" stroke="white" stroke-width="2"/>
<path d="M18.6111 3.83337H21C22.8856 3.83337 23.8284 3.83337 24.4142 4.41916C25 5.00495 25 5.94776 25 7.83337V20.2778C25 22.1634 25 23.1062 24.4142 23.692C23.8284 24.2778 22.8856 24.2778 21 24.2778H6C4.11438 24.2778 3.17157 24.2778 2.58579 23.692C2 23.1062 2 22.1634 2 20.2778V7.83337C2 5.94776 2 5.00495 2.58579 4.41916C3.17157 3.83337 4.11438 3.83337 6 3.83337H8.38889" stroke="white" stroke-width="3"/>
</svg>
