<svg width="32" height="31" viewBox="0 0 32 31" fill="none" xmlns="http://www.w3.org/2000/svg">
<path d="M21.7343 17.1807H16.6523C16.5143 17.1807 16.4023 17.0687 16.4023 16.9307V13.0336" stroke="white" stroke-width="1.5" stroke-linecap="round"/>
<path d="M12.3115 25.5377C14.3967 26.5363 16.7501 26.8302 19.017 26.3751C21.2838 25.9199 23.3414 24.7404 24.8798 23.0142C26.4181 21.288 27.3538 19.1087 27.5458 16.8046C27.7379 14.5005 27.1759 12.1964 25.9446 10.2395C24.7133 8.28266 22.8794 6.77902 20.7191 5.95514C18.5589 5.13127 16.1893 5.0318 13.9675 5.67173C11.7457 6.31165 9.79199 7.65631 8.40075 9.50308C6.0519 12.621 6.22717 16.4082 6.02703 20.1081M6.02703 20.1081L1 15.0811M6.02703 20.1081L11.0541 15.0811" stroke="white" stroke-width="2" stroke-linecap="round" stroke-linejoin="round"/>
</svg>
