<svg width="36" height="22" viewBox="0 0 36 22" fill="none" xmlns="http://www.w3.org/2000/svg">
<path fill-rule="evenodd" clip-rule="evenodd" d="M29.0003 9.2C27.8481 9.2 26.8869 8.36962 26.4151 7.31846C25.008 4.18345 21.859 2 18.2001 2C14.342 2 11.051 4.42758 9.77103 7.83858C9.43787 8.72645 8.34832 9.2 7.4 9.2V9.2C4.41766 9.2 2 11.6177 2 14.6C2 17.5823 4.41766 20 7.4 20C7.98395 20 8.57061 19.9905 9.13653 19.9529C9.64194 19.9193 8.37842 20.0033 8.42818 20.0017C8.47795 20 9.91874 20 12.8003 20V20H18.2001H29.0003C31.9826 20 34.4003 17.5823 34.4003 14.6C34.4003 11.6177 31.9826 9.2 29.0003 9.2V9.2Z" fill="white"/>
<path d="M9.13653 19.9529L9.03703 18.4562L9.13653 19.9529ZM8.42818 20.0017L8.3784 18.5025L8.42818 20.0017ZM26.4151 7.31846L25.0466 7.93269L26.4151 7.31846ZM27.7836 6.70424C26.1434 3.04998 22.4712 0.5 18.2001 0.5V3.5C21.2469 3.5 23.8726 5.31692 25.0466 7.93269L27.7836 6.70424ZM18.2001 0.5C13.6967 0.5 9.85901 3.33446 8.36664 7.3116L11.1754 8.36555C12.2429 5.5207 14.9874 3.5 18.2001 3.5V0.5ZM7.4 7.7C3.58924 7.7 0.5 10.7892 0.5 14.6H3.5C3.5 12.4461 5.24609 10.7 7.4 10.7V7.7ZM0.5 14.6C0.5 18.4108 3.58924 21.5 7.4 21.5V18.5C5.24609 18.5 3.5 16.7539 3.5 14.6H0.5ZM7.4 21.5C7.99709 21.5 8.62168 21.4904 9.23604 21.4496L9.03703 18.4562C8.51954 18.4906 7.97082 18.5 7.4 18.5V21.5ZM18.2001 18.5H12.8003V21.5H18.2001V18.5ZM29.0003 18.5H18.2001V21.5H29.0003V18.5ZM32.9003 14.6C32.9003 16.7539 31.1542 18.5 29.0003 18.5V21.5C32.8111 21.5 35.9003 18.4108 35.9003 14.6H32.9003ZM29.0003 10.7C31.1542 10.7 32.9003 12.4461 32.9003 14.6H35.9003C35.9003 10.7892 32.8111 7.7 29.0003 7.7V10.7ZM9.23604 21.4496C9.29936 21.4454 9.33463 21.443 9.34832 21.4421C9.35214 21.4419 9.35323 21.4418 9.35298 21.4418C9.35285 21.4418 9.35244 21.4419 9.35187 21.4419C9.3518 21.4419 9.34977 21.442 9.34719 21.4422C9.34525 21.4423 9.33816 21.4427 9.33303 21.443C9.28288 21.4447 7.75717 20.0015 9.11968 18.4512C9.12999 18.4503 9.14317 18.4492 9.14603 18.449C9.14736 18.4489 9.14947 18.4488 9.15023 18.4487C9.15286 18.4485 9.15508 18.4484 9.15332 18.4485C9.1508 18.4487 9.14364 18.4491 9.13174 18.4499C9.08525 18.4531 8.97598 18.4604 8.85247 18.4687C8.72912 18.477 8.59076 18.4863 8.48608 18.4935C8.43412 18.4971 8.38875 18.5003 8.35736 18.5025C8.34303 18.5036 8.32641 18.5048 8.31282 18.5059C8.30912 18.5062 8.30324 18.5067 8.29643 18.5073C8.29462 18.5074 8.27416 18.5092 8.24926 18.5122C8.24182 18.5131 8.22792 18.5148 8.21055 18.5173C8.20093 18.5187 8.15645 18.5251 8.10055 18.5375C8.06629 18.5456 7.96942 18.5731 7.90747 18.5944C7.76239 18.6568 7.19938 19.1393 6.96233 19.6769C7.02927 20.5467 7.7835 21.3567 8.01569 21.4442C8.10069 21.4658 8.22999 21.4887 8.27337 21.4938C8.34003 21.5007 8.39284 21.5013 8.40169 21.5015C8.42083 21.5018 8.43605 21.5017 8.44389 21.5016C8.46005 21.5014 8.47281 21.501 8.47796 21.5008L8.3784 18.5025C8.38277 18.5023 8.39492 18.5019 8.41062 18.5018C8.41823 18.5017 8.43326 18.5016 8.45225 18.5019C8.46095 18.502 8.51364 18.5027 8.58023 18.5095C8.62357 18.5146 8.75285 18.5375 8.83783 18.5591C9.07 18.6466 9.82422 19.4566 9.89116 20.3265C9.65411 20.864 9.09111 21.3465 8.94606 21.4089C8.88412 21.4302 8.78729 21.4577 8.75307 21.4657C8.69724 21.4782 8.65288 21.4845 8.64342 21.4859C8.6262 21.4884 8.61249 21.4901 8.60528 21.491C8.59057 21.4927 8.57914 21.4939 8.57486 21.4943C8.56933 21.4948 8.565 21.4952 8.56262 21.4954C8.55789 21.4958 8.55466 21.4961 8.55415 21.4961C8.55336 21.4962 8.55829 21.4958 8.57276 21.4948C8.59897 21.4929 8.6402 21.49 8.6918 21.4865C8.79424 21.4794 8.93084 21.4702 9.05398 21.4619C9.17695 21.4536 9.28568 21.4463 9.33241 21.4432C9.34381 21.4425 9.35215 21.4419 9.35583 21.4416C9.35635 21.4416 9.35697 21.4416 9.35761 21.4415C9.3577 21.4415 9.35961 21.4414 9.3618 21.4412C9.3626 21.4412 9.36475 21.441 9.36611 21.4409C9.36899 21.4407 9.38219 21.4397 9.39251 21.4387C10.755 19.8884 9.22932 18.4452 9.17915 18.4469C9.17401 18.4472 9.1669 18.4476 9.16492 18.4477C9.16229 18.4479 9.16016 18.448 9.15995 18.448C9.15924 18.4481 9.15864 18.4481 9.1583 18.4482C9.15631 18.4483 9.15314 18.4485 9.15 18.4487C9.13586 18.4496 9.10005 18.452 9.03703 18.4562L9.23604 21.4496ZM12.8003 18.5C9.9508 18.5 8.46134 18.4997 8.3784 18.5025L8.47796 21.5008C8.47001 21.5011 8.79699 21.5004 9.55274 21.5002C10.2791 21.5 11.3594 21.5 12.8003 21.5V18.5ZM8.36664 7.3116C8.36243 7.32282 8.31891 7.4181 8.1135 7.52702C7.90866 7.63564 7.64227 7.7 7.4 7.7V10.7C8.10606 10.7 8.8586 10.5276 9.5189 10.1775C10.1786 9.82764 10.8465 9.24221 11.1754 8.36555L8.36664 7.3116ZM25.0466 7.93269C25.6793 9.34233 27.0821 10.7 29.0003 10.7V7.7C28.6142 7.7 28.0945 7.39692 27.7836 6.70424L25.0466 7.93269Z" fill="white"/>
<path d="M17.724 17.2471L17.1427 18.0608L17.724 18.476L18.3052 18.0608L17.724 17.2471ZM18.724 7.71765C18.724 7.16537 18.2763 6.71765 17.724 6.71765C17.1717 6.71765 16.724 7.16537 16.724 7.71765H18.724ZM13.8074 15.6784L17.1427 18.0608L18.3052 16.4333L14.9699 14.051L13.8074 15.6784ZM18.3052 18.0608L21.6405 15.6784L20.478 14.051L17.1427 16.4333L18.3052 18.0608ZM18.724 17.2471V7.71765H16.724V17.2471H18.724Z" fill="black"/>
</svg>
