<svg width="25" height="33" viewBox="0 0 25 33" fill="none" xmlns="http://www.w3.org/2000/svg">
<path d="M2.77734 9.41294V6.61204C2.77734 4.46614 2.77734 3.3932 3.46694 2.79511C4.15654 2.19703 5.2187 2.34877 7.34303 2.65224L17.8485 4.15302C20.3046 4.5039 21.5327 4.67933 22.2663 5.52523C23 6.37112 23 7.61165 23 10.0927V22.7967C23 25.2778 23 26.5183 22.2663 27.3642C21.5327 28.2101 20.3046 28.3856 17.8485 28.7364L7.34303 30.2372C5.2187 30.5407 4.15654 30.6924 3.46694 30.0943C2.77734 29.4963 2.77734 28.4233 2.77734 26.2774V23.7624" stroke="white" stroke-width="3"/>
<path d="M18.334 16.4448L19.1149 15.8201L19.6146 16.4448L19.1149 17.0695L18.334 16.4448ZM1.00031 17.4448C0.448024 17.4448 0.00030899 16.9971 0.00030899 16.4448C0.00030899 15.8925 0.448024 15.4448 1.00031 15.4448V17.4448ZM13.337 8.59772L19.1149 15.8201L17.5531 17.0695L11.7752 9.84711L13.337 8.59772ZM19.1149 17.0695L13.337 24.2918L11.7752 23.0424L17.5531 15.8201L19.1149 17.0695ZM18.334 17.4448H1.00031V15.4448H18.334V17.4448Z" fill="white"/>
</svg>
