<svg width="27" height="27" viewBox="0 0 27 27" fill="none" xmlns="http://www.w3.org/2000/svg">
<path d="M18.7632 26H4.28947C2.47275 26 1 24.4454 1 22.5278C1 16.8601 8.89474 16.9723 11.5263 16.9723C14.1579 16.9723 22.0526 16.8601 22.0526 22.5278C22.0526 24.4454 20.5799 26 18.7632 26Z" fill="white"/>
<path d="M11.5263 12.111C14.4331 12.111 16.7895 9.62375 16.7895 6.55552C16.7895 3.48729 14.4331 1 11.5263 1C8.61955 1 6.26316 3.48729 6.26316 6.55552C6.26316 9.62375 8.61955 12.111 11.5263 12.111Z" fill="white"/>
<path d="M22.0526 7.9444V16.2777M18.1053 12.111H26M4.28947 26H18.7632C20.5799 26 22.0526 24.4454 22.0526 22.5278C22.0526 16.8601 14.1579 16.9723 11.5263 16.9723C8.89474 16.9723 1 16.8601 1 22.5278C1 24.4454 2.47275 26 4.28947 26ZM16.7895 6.55552C16.7895 9.62375 14.4331 12.111 11.5263 12.111C8.61955 12.111 6.26316 9.62375 6.26316 6.55552C6.26316 3.48729 8.61955 1 11.5263 1C14.4331 1 16.7895 3.48729 16.7895 6.55552Z" stroke="white" stroke-width="1.5" stroke-linecap="round" stroke-linejoin="round"/>
</svg>
