<svg width="30" height="25" viewBox="0 0 30 25" fill="none" xmlns="http://www.w3.org/2000/svg">
<path d="M1 4.38235V4.38235C1 4.02727 1 3.84972 1.01502 3.7002C1.15761 2.28046 2.28046 1.15761 3.7002 1.01502C3.84972 1 4.02727 1 4.38235 1L26.4781 1C26.9169 1 27.1363 1 27.2788 1.12828C27.2919 1.14005 27.3044 1.15251 27.3162 1.1656C27.4444 1.30819 27.4444 1.52759 27.4444 1.96639V1.96639C27.4444 4.59916 27.4444 5.91554 26.6748 6.77112C26.6041 6.84964 26.5294 6.92438 26.4509 6.99502C25.5953 7.76471 24.2789 7.76471 21.6461 7.76471H19.6667M1 4.38235V4.38235C1 4.73744 1 4.91498 1.01502 5.06451C1.15761 6.48424 2.28046 7.6071 3.7002 7.74969C3.84972 7.76471 4.02727 7.76471 4.38236 7.76471L27 7.76471C27.9428 7.76471 28.4142 7.76471 28.7071 8.0576C29 8.35049 29 8.8219 29 9.76471L29 13.1765M1 4.38235L1 20C1 21.8856 1 22.8284 1.58579 23.4142C2.17157 24 3.11438 24 5 24L27 24C27.9428 24 28.4142 24 28.7071 23.7071C29 23.4142 29 22.9428 29 22L29 18.5882M29 18.5882H21.6667C20.7239 18.5882 20.2524 18.5882 19.9596 18.2953C19.6667 18.0024 19.6667 17.531 19.6667 16.5882V15.1765C19.6667 14.2337 19.6667 13.7623 19.9596 13.4694C20.2524 13.1765 20.7239 13.1765 21.6667 13.1765H29M29 18.5882L29 13.1765" stroke="white" stroke-width="2"/>
</svg>
